# xmcd
# Track frame offsets:
# 150
# 16277
# 30904
# 44256
# 64433
# 74110
# 92112
# 103664
# 121291
# 138843
# 151970
# 171247
# 189324
# 200801
# 213628
#
# Disc length: 3011 seconds
# Revision: 2
# Processed by: cddbd v1.5.1PL2 Copyright (c) Steve Scherf et al.
# Submitted via: VisiTrax 2.10.0.248 - For more info visit www.synapsa.com
#
DISCID=db0bc10f
DTITLE=Various Artist - Country Rock Greatest Hits Album Disk 2
DYEAR=1995
DGENRE=Country
TTITLE0=Kenny Rogers - The Gambler
TTITLE1=John Williamson - Mallee Boy
TTITLE2=Dolly Parton - Here You Come Again
TTITLE3=Don Williams - I Believe in You
TTITLE4=Johnny Cash - Ballad od a Teenage Queen
TTITLE5=Rita Coolidge - Higher and Higher
TTITLE6=Patsy Cline - Walkin After Midnight
TTITLE7=Black Sorrows - Harley and Rose
TTITLE8=Big Country - In a Big Country
TTITLE9=Littlr River Band - Down on the Border
TTITLE10=Kris Kristofferson - Me and Bobby McGee
TTITLE11=Rick Nelson - Garden Party
TTITLE12=Willie Nelson - On the Road Again
TTITLE13=Lee Hazelwood - These Boots Were Made for Walking
TTITLE14=B.J. Thomas - Hooked on a Feeling
EXTD=
EXTT0=
EXTT1=
EXTT2=
EXTT3=
EXTT4=
EXTT5=
EXTT6=
EXTT7=
EXTT8=
EXTT9=
EXTT10=
EXTT11=
EXTT12=
EXTT13=
EXTT14=
PLAYORDER=
